<svg width="17" height="8" viewBox="0 0 17 8" fill="none" xmlns="http://www.w3.org/2000/svg">
<g clip-path="url(#clip0_153_5009)">
<path d="M2.99102 7.6579C3.10612 7.6579 3.20794 7.61404 3.29648 7.52632L8.51602 2.35526L13.7355 7.52632C13.8241 7.61404 13.9259 7.6579 14.041 7.6579C14.1561 7.6579 14.2579 7.61404 14.3465 7.52632L15.0105 6.86842C15.0991 6.7807 15.1434 6.67983 15.1434 6.56579C15.1434 6.45176 15.0991 6.35088 15.0105 6.26316L8.82148 0.131579C8.73294 0.0438597 8.63112 0 8.51602 0C8.40091 0 8.29909 0.0438597 8.21055 0.131579L2.02148 6.26316C1.93294 6.35088 1.88867 6.45176 1.88867 6.56579C1.88867 6.67983 1.93294 6.7807 2.02148 6.86842L2.68555 7.52632C2.77409 7.61404 2.87591 7.6579 2.99102 7.6579Z" fill="#18214D"/>
</g>
<defs>
<clipPath id="clip0_153_5009">
<rect width="8" height="17" fill="white" transform="matrix(0 1 1 0 0 0)"/>
</clipPath>
</defs>
</svg>
