<svg width="17" height="8" viewBox="0 0 17 8" fill="none" xmlns="http://www.w3.org/2000/svg">
<g clip-path="url(#clip0_153_5013)">
<path d="M2.99102 0.342104C3.10612 0.342104 3.20794 0.385964 3.29648 0.473683L8.51602 5.64474L13.7355 0.473683C13.8241 0.385964 13.9259 0.342104 14.041 0.342104C14.1561 0.342104 14.2579 0.385964 14.3465 0.473683L15.0105 1.13158C15.0991 1.2193 15.1434 1.32017 15.1434 1.43421C15.1434 1.54824 15.0991 1.64912 15.0105 1.73684L8.82149 7.86842C8.73294 7.95614 8.63112 8 8.51602 8C8.40091 8 8.29909 7.95614 8.21055 7.86842L2.02148 1.73684C1.93294 1.64912 1.88867 1.54824 1.88867 1.43421C1.88867 1.32017 1.93294 1.2193 2.02148 1.13158L2.68555 0.473683C2.77409 0.385964 2.87591 0.342104 2.99102 0.342104Z" fill="#18214D"/>
</g>
<defs>
<clipPath id="clip0_153_5013">
<rect width="8" height="17" fill="white" transform="translate(0 8) rotate(-90)"/>
</clipPath>
</defs>
</svg>
