<svg width="12" height="26" viewBox="0 0 12 26" fill="none" xmlns="http://www.w3.org/2000/svg">
<path d="M0.513156 21.0132C0.513156 20.8406 0.578946 20.6878 0.710525 20.555L8.4671 12.7257L0.710525 4.89643C0.578946 4.76362 0.513156 4.61089 0.513156 4.43823C0.513156 4.26557 0.578946 4.11284 0.710525 3.98003L1.69737 2.98393C1.82895 2.85112 1.98026 2.78471 2.15131 2.78471C2.32237 2.78471 2.47368 2.85112 2.60526 2.98393L11.8026 12.2675C11.9342 12.4003 12 12.5531 12 12.7257C12 12.8984 11.9342 13.0511 11.8026 13.1839L2.60526 22.4675C2.47368 22.6003 2.32237 22.6667 2.15131 22.6667C1.98026 22.6667 1.82895 22.6003 1.69737 22.4675L0.710525 21.4714C0.578946 21.3386 0.513156 21.1859 0.513156 21.0132Z" fill="white"/>
</svg>
