<svg width="12" height="12" viewBox="0 0 12 12" fill="none" xmlns="http://www.w3.org/2000/svg">
<path d="M8.17982 2.49678L8.19067 2.58012L8.06578 2.60598L8.04915 2.78351H8.19875L8.39775 2.76434L8.50048 2.64222L8.39129 2.59974L8.33149 2.53095L8.24169 2.38551L8.19875 2.17981L8.02999 2.21421L7.98267 2.2867V2.36842L8.06393 2.42406L8.17982 2.49678Z" fill="black"/>
<path d="M8.03599 2.56499L8.045 2.45372L7.94596 2.41101L7.80744 2.4431L7.70471 2.60793V2.71482H7.82453L8.03599 2.56499Z" fill="black"/>
<path d="M5.18483 3.03765L5.15435 3.11615H5.00684V3.19233H5.04193C5.04193 3.19233 5.044 3.20849 5.04701 3.22973L5.1375 3.22211L5.19406 3.18702L5.20884 3.11615L5.28202 3.10991L5.31088 3.05035L5.2437 3.0365L5.18483 3.03765Z" fill="black"/>
<path d="M4.80472 3.176L4.79895 3.25057L4.90584 3.24157L4.91692 3.16677L4.85274 3.11621L4.80472 3.176Z" fill="black"/>
<path d="M11.2241 5.5547C11.2225 5.39056 11.2142 5.22757 11.1987 5.06713C11.1468 4.53223 11.0189 4.01949 10.8273 3.53884C10.813 3.50306 10.7998 3.46681 10.7846 3.43149C10.5293 2.82826 10.1707 2.27904 9.73187 1.80509C9.70301 1.77415 9.67369 1.74368 9.64437 1.71367C9.56149 1.62756 9.47631 1.54352 9.38812 1.46295C8.39035 0.554524 7.06521 0 5.61265 0C4.14785 0 2.81325 0.564451 1.81271 1.48673C1.57954 1.70166 1.3653 1.93622 1.17092 2.18739C0.437709 3.13576 0 4.32376 0 5.61265C0 8.70778 2.51798 11.2255 5.61288 11.2255C7.78988 11.2255 9.67992 9.97889 10.6103 8.16249C10.8093 7.77418 10.9642 7.36025 11.0685 6.92647C11.0951 6.81635 11.1179 6.70577 11.1378 6.5938C11.1944 6.27498 11.2253 5.94716 11.2253 5.61265C11.2255 5.59326 11.2244 5.57409 11.2241 5.5547ZM10.1677 3.31144L10.2003 3.27497C10.243 3.35785 10.2829 3.44211 10.321 3.52753L10.2679 3.52545L10.1677 3.5393V3.31144ZM9.35672 2.33214L9.35765 2.08143C9.44583 2.17492 9.53079 2.27119 9.61205 2.37092L9.51094 2.52144L9.15749 2.51821L9.13533 2.44457L9.35672 2.33214ZM2.58608 1.70905V1.69958H2.69851L2.70821 1.66103H2.8922V1.74137L2.83934 1.81201H2.58585L2.58608 1.70905ZM2.76569 1.95953C2.76569 1.95953 2.87812 1.94037 2.88782 1.94037C2.89751 1.94037 2.88782 2.05257 2.88782 2.05257L2.63433 2.0685L2.58608 2.01078L2.76569 1.95953ZM10.5253 4.18755H10.1146L9.86438 4.00125L9.60097 4.02688V4.18755H9.51763L9.4276 4.12337L8.97142 4.00771V3.71221L8.39335 3.75723L8.2142 3.8535H7.98473L7.8723 3.84219L7.59365 3.99686V4.28798L7.02412 4.69891L7.07145 4.87436H7.18688L7.15663 5.0415L7.07537 5.07128L7.07099 5.50807L7.56318 6.06859H7.77741L7.79034 6.03443H8.17542L8.28646 5.93169H8.50485L8.62467 6.05174L8.95018 6.08545L8.90701 6.51831L9.2683 7.15617L9.07808 7.51977L9.091 7.69107L9.24083 7.84044V8.25229L9.43752 8.51685V8.85899H9.60744C8.66184 10.02 7.22266 10.7636 5.61242 10.7636C2.77239 10.7638 0.461718 8.45291 0.461718 5.61265C0.461718 4.89768 0.608545 4.21618 0.872878 3.59679V3.43611L1.0571 3.2124C1.12105 3.09167 1.18962 2.97393 1.2628 2.85919L1.27111 2.95269L1.05733 3.2124C0.991078 3.33753 0.929208 3.46543 0.873109 3.59679V3.88998L1.08712 3.99294V4.40041L1.29235 4.75062L1.45926 4.77624L1.48073 4.6562L1.28381 4.35239L1.24525 4.05712H1.36068L1.4094 4.36093L1.69404 4.77624L1.62063 4.91037L1.80162 5.18717L2.25111 5.29845V5.22573L2.43095 5.25135L2.41386 5.37971L2.55515 5.40557L2.77331 5.46513L3.08151 5.81627L3.47512 5.84605L3.51368 6.16717L3.24426 6.35555L3.23157 6.64228L3.19301 6.81773L3.5827 7.30554L3.61248 7.47268C3.61248 7.47268 3.75377 7.511 3.77108 7.511C3.78817 7.511 4.08782 7.73794 4.08782 7.73794V8.61959L4.19471 8.6496L4.12199 9.05637L4.30183 9.29624L4.26859 9.69932L4.50614 10.1169L4.8111 10.3834L5.11769 10.3889L5.1477 10.2903L4.92238 10.1005L4.93531 10.0064L4.97571 9.89093L4.98425 9.77319L4.83188 9.76857L4.75501 9.67207L4.88152 9.55041L4.8986 9.45853L4.75731 9.41813L4.76563 9.33271L4.96693 9.30224L5.27305 9.15518L5.37579 8.9668L5.69691 8.55587L5.62396 8.23451L5.72254 8.06345L6.01781 8.07245L6.21658 7.91501L6.28075 7.29492L6.50122 7.01489L6.53978 6.83505L6.3387 6.77064L6.20596 6.55294L5.75232 6.54832L5.39264 6.41119L5.37556 6.1547L5.25551 5.94485L4.93023 5.94001L4.74231 5.64497L4.5754 5.56347L4.56686 5.65351L4.26305 5.67152L4.15177 5.51661L3.8348 5.4522L3.5737 5.75393L3.16277 5.68421L3.13299 5.22111L2.8331 5.16986L2.95338 4.94269L2.91898 4.81226L2.52491 5.07567L2.27696 5.04543L2.18854 4.85174L2.24257 4.65204L2.37923 4.40018L2.6939 4.24088L3.30152 4.24065L3.2999 4.42603L3.51829 4.52761L3.50098 4.21087L3.65843 4.0525L3.97609 3.8438L3.99779 3.69698L4.31453 3.36731L4.65135 3.18078L4.62157 3.15631L4.84966 2.94161L4.93323 2.96377L4.97155 3.01179L5.05812 2.91575L5.07936 2.90629L4.98448 2.8929L4.88821 2.86081V2.76846L4.93923 2.72668H5.05166L5.10314 2.7493L5.1477 2.83934L5.20218 2.83103V2.82318L5.21788 2.82849L5.37579 2.80425L5.39818 2.72714L5.48821 2.74976V2.83333L5.40464 2.89082H5.40487L5.41711 2.98247L5.70315 3.07066C5.70315 3.07066 5.70338 3.07181 5.70384 3.07412L5.76963 3.06858L5.77402 2.94461L5.54731 2.84141L5.53439 2.78185L5.72254 2.71767L5.73085 2.5376L5.53416 2.41779L5.52123 2.11421L5.25158 2.24672H5.15324L5.17909 2.01563L4.81203 1.92906L4.66012 2.0438V2.39378L4.38702 2.48035L4.27759 2.70844L4.15893 2.7276V2.43579L3.90221 2.40024L3.77385 2.31667L3.72214 2.1276L4.18132 1.85888L4.40595 1.79054L4.42857 1.94153L4.5537 1.93506L4.56339 1.85911L4.69429 1.84041L4.6966 1.81386L4.64027 1.79054L4.62734 1.7102L4.78825 1.69658L4.88544 1.59547L4.89075 1.58808L4.89191 1.58854L4.92146 1.55807L5.25966 1.51536L5.40926 1.64233L5.01703 1.85126L5.51615 1.969L5.58079 1.80209H5.79895L5.87606 1.65665L5.72184 1.61809V1.4341L5.23819 1.21986L4.90437 1.25841L4.71599 1.35699L4.72892 1.59662L4.532 1.56661L4.50175 1.4341L4.69037 1.2628L4.348 1.24572L4.24966 1.2755L4.20695 1.39093L4.3353 1.41263L4.30968 1.54098L4.09152 1.55391L4.05735 1.63933L3.74084 1.6481C3.74084 1.6481 3.73207 1.46849 3.71937 1.46849C3.70667 1.46849 3.96755 1.46411 3.96755 1.46411L4.15616 1.27988L4.05319 1.2284L3.9163 1.36138L3.68913 1.34845L3.55223 1.16007H3.26112L2.95731 1.387H3.23572L3.26112 1.46849L3.18886 1.53567L3.49705 1.54422L3.54415 1.65549L3.19717 1.64256L3.18032 1.55691L2.96215 1.50982L2.84649 1.44564L2.58678 1.44772C3.43703 0.828323 4.48259 0.461718 5.61265 0.461718C6.91516 0.461718 8.10523 0.9486 9.0132 1.74853L8.95203 1.85795L8.71447 1.95099L8.61428 2.05973L8.63737 2.18647L8.75995 2.20355L8.83383 2.38824L9.04529 2.30305L9.08015 2.55007H9.01644L8.84283 2.52444L8.65029 2.55676L8.46399 2.81994L8.19758 2.86173L8.15902 3.08982L8.27145 3.11637L8.2389 3.26296L7.97434 3.20987L7.7317 3.26296L7.68022 3.39802L7.72224 3.68151L7.86468 3.74823L8.10362 3.74684L8.26499 3.7323L8.31416 3.60394L8.56626 3.27635L8.73225 3.31029L8.8957 3.16254L8.92617 3.27797L9.32833 3.54923L9.27915 3.61525L9.09793 3.60556L9.16765 3.70437L9.27915 3.72884L9.40982 3.67435L9.40705 3.51691L9.46499 3.48782L9.41836 3.43842L9.1501 3.28882L9.07946 3.09005H9.30247L9.37381 3.16069L9.56588 3.32622L9.57396 3.52637L9.77296 3.7383L9.84707 3.44788L9.98489 3.37262L10.0107 3.61017L10.1453 3.75792L10.4138 3.75331C10.4658 3.88698 10.5124 4.02295 10.5533 4.1617L10.5253 4.18755ZM3.06142 2.55007L3.19625 2.48589L3.31814 2.51498L3.27612 2.67866L3.14453 2.72044L3.06142 2.55007ZM3.77686 2.93537V3.04134H3.46889L3.35346 3.00925L3.38232 2.93537L3.5303 2.8742H3.73253V2.93537H3.77686ZM3.9186 3.08312V3.18586L3.8415 3.23549L3.74546 3.25327C3.74546 3.25327 3.74546 3.09928 3.74546 3.08312H3.9186ZM3.8318 3.04134V2.91921L3.93776 3.01571L3.8318 3.04134ZM3.88005 3.28836V3.38832L3.80641 3.46219H3.64273L3.66835 3.35L3.74569 3.3433L3.76162 3.30475L3.88005 3.28836ZM3.47235 3.08312H3.6425L3.42433 3.38809L3.3343 3.33984L3.35369 3.21148L3.47235 3.08312ZM4.16909 3.25327V3.353H4.00541L3.96062 3.28836V3.19555H3.97355L4.16909 3.25327ZM4.01787 3.11614L4.06451 3.06719L4.14323 3.11614L4.0802 3.16808L4.01787 3.11614ZM10.6089 4.4475L10.6251 4.42857C10.6318 4.45766 10.6389 4.48675 10.6454 4.5163L10.6089 4.4475Z" fill="black"/>
<path d="M0.873169 3.4361V3.59678C0.929268 3.46565 0.991138 3.33776 1.05739 3.2124L0.873169 3.4361Z" fill="black"/>
</svg>
