<svg width="20" height="20" viewBox="0 0 20 20" fill="none" xmlns="http://www.w3.org/2000/svg">
<path d="M0 13.318C0 16.6279 2.68321 19.311 5.99309 19.311C9.30297 19.311 11.9862 16.6279 11.9862 13.318C11.9862 9.98847 10.3214 7.32487 11.4384 4.99423C11.4384 4.99423 9.6555 5.3272 8.65669 7.99076C8.65669 7.99076 5.3272 4.66127 6.71827 0C6.71827 0 3.32953 1.33178 3.68391 5.66012C3.98784 9.37169 3.32953 9.98847 3.32953 9.98847C3.32953 6.99194 0.986747 5.66012 0.986747 5.66012C1.66474 9.32258 0 10.3214 0 13.318Z" fill="#FFB446"/>
<path d="M10.3191 14.7372C10.3191 17.23 8.3943 19.3581 5.90193 19.31C3.5564 19.2648 1.81128 17.4802 1.99779 15.149C2.08103 14.1086 2.87176 12.423 4.16194 10.7167L5.02208 11.2369C4.99428 9.12825 5.99313 6.32593 5.99313 6.32593C6.64925 9.27851 10.3191 10.0438 10.3191 14.7372Z" fill="#FFDC64"/>
<path d="M4.32835 12.652C3.99539 14.6497 3.3295 15.377 3.3295 16.6473C3.3295 17.9792 4.52207 19.3109 5.9931 19.3109C7.47476 19.3109 8.66077 18.1003 8.65666 16.6187C8.64553 12.6393 6.32606 10.6543 6.32606 10.6543C6.65903 12.652 5.66017 13.6508 5.66017 13.6508C5.24408 13.0268 4.32835 12.652 4.32835 12.652Z" fill="white"/>
<path d="M13.318 16.0046C13.318 17.8307 14.7984 19.3111 16.6245 19.3111C18.4506 19.3111 19.931 17.8307 19.931 16.0046C19.931 14.1676 19.0126 12.698 19.6288 11.4122C19.6288 11.4122 18.6451 11.5959 18.0941 13.0654C18.0941 13.0654 16.2571 11.2285 17.0246 8.65674C17.0246 8.65674 15.1549 9.39151 15.3505 11.7796C15.5182 13.8273 15.1549 14.1676 15.1549 14.1676C15.1549 12.5144 13.8624 11.7796 13.8624 11.7796C14.2364 13.8002 13.318 14.3513 13.318 16.0046Z" fill="#FFB446"/>
<path d="M19.0112 16.7877C19.0112 18.163 17.9493 19.3371 16.5742 19.3106C15.2801 19.2857 14.3173 18.3011 14.4202 17.0149C14.4661 16.4408 14.9024 15.5109 15.6142 14.5694L16.0887 14.8565C16.0734 13.6931 16.6245 12.147 16.6245 12.147C16.9865 13.776 19.0112 14.1982 19.0112 16.7877Z" fill="#FFDC64"/>
<path d="M15.706 15.6371C15.5223 16.7393 15.1549 17.1405 15.1549 17.8414C15.1549 18.5762 15.8129 19.311 16.6245 19.311C17.442 19.311 18.0963 18.6431 18.0941 17.8256C18.0879 15.6301 16.8082 14.5349 16.8082 14.5349C16.9919 15.6371 16.4408 16.1882 16.4408 16.1882C16.2113 15.8439 15.706 15.6371 15.706 15.6371Z" fill="white"/>
</svg>
