<svg width="23" height="23" viewBox="0 0 23 23" fill="none" xmlns="http://www.w3.org/2000/svg">
<path d="M11.4061 0.470703C5.23143 0.470703 0.207886 5.49425 0.207886 11.6689C0.207886 17.8436 5.23143 22.8672 11.4061 22.8672C17.5808 22.8672 22.6044 17.8436 22.6044 11.6689C22.6044 5.49425 17.5808 0.470703 11.4061 0.470703ZM11.4061 21.6636C5.89499 21.6636 1.41151 17.1801 1.41151 11.6689C1.41151 6.1578 5.89499 1.67432 11.4061 1.67432C16.9173 1.67432 21.4007 6.1578 21.4007 11.6689C21.4007 17.1801 16.9173 21.6636 11.4061 21.6636Z" fill="#BB00DA"/>
<path d="M11.4061 2.79858C6.51499 2.79858 2.53583 6.77787 2.53583 11.6689C2.53583 16.5599 6.51511 20.5392 11.4061 20.5392C16.2972 20.5392 20.2765 16.5599 20.2765 11.6689C20.2765 6.77787 16.2973 2.79858 11.4061 2.79858ZM11.4061 19.817C6.91315 19.817 3.258 16.1618 3.258 11.6689C3.258 7.17603 6.91327 3.52076 11.4061 3.52076C15.899 3.52076 19.5543 7.17603 19.5543 11.6689C19.5543 16.1618 15.8991 19.817 11.4061 19.817Z" fill="#BB00DA"/>
<path d="M7.41456 13.0498L7.80899 12.7211C8.43367 12.1687 8.94653 11.5966 8.94653 10.8734C8.94653 10.104 8.42043 9.53857 7.4473 9.53857C6.87534 9.53857 6.36898 9.73585 6.05339 9.9791L6.33612 10.6892C6.55975 10.5248 6.88196 10.3408 7.25015 10.3408C7.74327 10.3408 7.94717 10.6169 7.94717 10.9653C7.94055 11.4651 7.48678 11.9451 6.54651 12.7868L6.00079 13.2799V13.8848H9.03199V13.0629H7.41456V13.0498Z" fill="#BB00DA"/>
<path d="M12.3595 9.61084H11.13L9.51898 12.2147V12.8657H11.4126V13.8849H12.3594V12.8657H12.8658V12.1161H12.3594V9.61084H12.3595ZM11.4128 11.1692V12.1161H10.4461L10.4527 12.1029L11.0182 11.1692C11.1629 10.8996 11.2812 10.6497 11.4193 10.3735H11.439C11.4259 10.6498 11.4128 10.9128 11.4128 11.1692Z" fill="#BB00DA"/>
<path d="M16.2328 11.3071H14.0893V9.45288H13.5106V13.8846H14.0893V11.8068H16.2328V13.8846H16.8114V9.45288H16.2328V11.3071Z" fill="#BB00DA"/>
</svg>
