<svg width="12" height="13" viewBox="0 0 12 13" fill="none" xmlns="http://www.w3.org/2000/svg">
<path d="M10.5869 5.45265C10.5869 9.21471 5.75002 12.4393 5.75002 12.4393C5.75002 12.4393 0.913086 9.21471 0.913086 5.45265C0.913086 4.16982 1.42269 2.93953 2.32979 2.03243C3.23689 1.12533 4.46718 0.615723 5.75002 0.615723C7.03285 0.615723 8.26314 1.12533 9.17024 2.03243C10.0773 2.93953 10.5869 4.16982 10.5869 5.45265Z" stroke="#A09E9E" stroke-width="1.07487" stroke-linecap="round" stroke-linejoin="round"/>
<path d="M5.75001 7.06495C6.64046 7.06495 7.36232 6.3431 7.36232 5.45264C7.36232 4.56219 6.64046 3.84033 5.75001 3.84033C4.85955 3.84033 4.1377 4.56219 4.1377 5.45264C4.1377 6.3431 4.85955 7.06495 5.75001 7.06495Z" stroke="#A09E9E" stroke-width="1.07487" stroke-linecap="round" stroke-linejoin="round"/>
</svg>
