<svg width="16" height="14" viewBox="0 0 16 14" fill="none" xmlns="http://www.w3.org/2000/svg">
<path d="M1 11.6221V10.9515C1 8.35899 3.10167 6.25732 5.6942 6.25732" stroke="#BB00DA" stroke-width="1.0059" stroke-linecap="round" stroke-linejoin="round"/>
<path d="M10.2565 6.46747C10.6869 5.99489 11.4305 5.99489 11.8609 6.46747C12.0784 6.70633 12.3911 6.83583 12.7138 6.82074C13.3522 6.7909 13.8781 7.31671 13.8482 7.95519C13.8331 8.27789 13.9626 8.59052 14.2015 8.80806C14.6741 9.23845 14.6741 9.98202 14.2015 10.4124C13.9626 10.6299 13.8331 10.9426 13.8482 11.2653C13.8781 11.9038 13.3522 12.4296 12.7138 12.3997C12.3911 12.3846 12.0784 12.5141 11.8609 12.753C11.4305 13.2256 10.6869 13.2256 10.2565 12.753C10.039 12.5141 9.72637 12.3846 9.40368 12.3997C8.7652 12.4296 8.23938 11.9038 8.26922 11.2653C8.28431 10.9426 8.15482 10.6299 7.91595 10.4124C7.44338 9.98202 7.44338 9.23845 7.91595 8.80806C8.15482 8.59052 8.28431 8.27789 8.26922 7.95519C8.23938 7.31671 8.7652 6.7909 9.40368 6.82074C9.72637 6.83583 10.039 6.70633 10.2565 6.46747Z" stroke="#BB00DA" stroke-width="1.0059"/>
<path d="M9.96094 9.61046L10.6926 10.342L12.1557 8.87891" stroke="#BB00DA" stroke-width="1.0059" stroke-linecap="round" stroke-linejoin="round"/>
<path d="M5.69412 6.25738C7.17554 6.25738 8.37652 5.0564 8.37652 3.57498C8.37652 2.09353 7.17554 0.892578 5.69412 0.892578C4.21267 0.892578 3.01172 2.09353 3.01172 3.57498C3.01172 5.0564 4.21267 6.25738 5.69412 6.25738Z" stroke="#BB00DA" stroke-width="1.0059" stroke-linecap="round" stroke-linejoin="round"/>
</svg>
