<svg width="33" height="17" viewBox="0 0 33 17" fill="none" xmlns="http://www.w3.org/2000/svg">
<path d="M11.6242 10.8135C10.0965 10.8135 8.85358 12.0562 8.85358 13.5837C8.85358 15.1112 10.0965 16.3539 11.6242 16.3539C13.1517 16.3539 14.3947 15.1112 14.3947 13.5837C14.3944 12.0562 13.1517 10.8135 11.6242 10.8135ZM11.6242 14.7016C11.0077 14.7016 10.5061 14.2002 10.5061 13.5837C10.5061 12.9674 11.0077 12.4658 11.6242 12.4658C12.2405 12.4658 12.7422 12.9671 12.7422 13.5837C12.7422 14.2 12.2405 14.7016 11.6242 14.7016Z" fill="#BB00DA"/>
<path d="M27.1291 10.8135C25.6016 10.8135 24.3587 12.0562 24.3587 13.5837C24.3587 15.1112 25.6014 16.3539 27.1291 16.3539C28.6566 16.3539 29.8996 15.1112 29.8996 13.5837C29.8998 12.0562 28.6569 10.8135 27.1291 10.8135ZM27.1291 14.7016C26.5128 14.7016 26.0112 14.2002 26.0112 13.5837C26.0112 12.9674 26.5126 12.4658 27.1291 12.4658C27.7457 12.4658 28.2471 12.9671 28.2471 13.5837C28.2473 14.2 27.7457 14.7016 27.1291 14.7016Z" fill="#BB00DA"/>
<path d="M20.6169 0.984131H8.93742C7.34307 0.984131 6.04565 2.28132 6.04565 3.87567V13.475C6.04565 13.9313 6.41562 14.301 6.87191 14.301C7.32819 14.301 7.69816 13.9313 7.69816 13.475V3.87567C7.69816 3.1925 8.25403 2.63641 8.93742 2.63641H20.6171C21.3005 2.63641 21.8564 3.1925 21.8564 3.87567V11.4095C21.8564 12.0926 21.3005 12.6487 20.6171 12.6487H15.8073C15.351 12.6487 14.981 13.0185 14.981 13.4747C14.981 13.931 15.351 14.3008 15.8073 14.3008H20.6169C22.2113 14.3008 23.5087 13.0036 23.5087 11.4092V3.87567C23.5087 2.28132 22.2115 0.984131 20.6169 0.984131Z" fill="#BB00DA"/>
<path d="M32.3485 9.44118L30.4046 5.44499C30.2663 5.16087 29.9778 4.98047 29.6617 4.98047H25.2335C24.7772 4.98047 24.4072 5.35021 24.4072 5.80649C24.4072 6.26277 24.7772 6.63251 25.2335 6.63251H29.145L30.7796 9.99292V13.4749C30.7796 13.9312 31.1496 14.3009 31.6059 14.3009C32.0621 14.3009 32.4321 13.9312 32.4321 13.4749V9.80268C32.4319 9.67767 32.4033 9.55381 32.3485 9.44118Z" fill="#BB00DA"/>
<path d="M4.0696 9.09009H0.627001C0.398974 9.09009 0.213989 9.2753 0.213989 9.50333C0.213989 9.73135 0.398974 9.91657 0.627001 9.91657H4.0696C4.29786 9.91657 4.48261 9.73135 4.48261 9.50333C4.48261 9.2753 4.29763 9.09009 4.0696 9.09009Z" fill="#BB00DA"/>
<path d="M4.06963 11.1963H2.21062C1.98236 11.1963 1.79761 11.3815 1.79761 11.6095C1.79761 11.8376 1.98259 12.0228 2.21062 12.0228H4.06963C4.29788 12.0228 4.48264 11.8376 4.48264 11.6095C4.48264 11.3815 4.29765 11.1963 4.06963 11.1963Z" fill="#BB00DA"/>
<path d="M19.7315 10.0542C19.9598 10.0542 20.1445 9.86902 20.1445 9.64099V5.81972C20.1445 4.58618 19.4845 3.96094 18.1825 3.96094H13.6394C13.4111 3.96094 13.2264 4.14592 13.2264 4.37418C13.2264 4.6022 13.4114 4.78742 13.6394 4.78742H18.1825C19.1326 4.78742 19.3185 5.16586 19.3185 5.81995V9.64122C19.3185 9.86902 19.5035 10.0542 19.7315 10.0542Z" fill="#BB00DA"/>
</svg>
