<svg width="16" height="17" viewBox="0 0 16 17" fill="none" xmlns="http://www.w3.org/2000/svg">
<path d="M14.6154 11.4439V5.49517C14.6152 5.23437 14.5463 4.97823 14.4158 4.75244C14.2853 4.52666 14.0977 4.33916 13.8719 4.20876L8.66673 1.2344C8.44065 1.10387 8.1842 1.03516 7.92314 1.03516C7.66209 1.03516 7.40563 1.10387 7.17955 1.2344L1.97442 4.20876C1.74857 4.33916 1.56097 4.52666 1.43046 4.75244C1.29995 4.97823 1.2311 5.23437 1.23083 5.49517V11.4439C1.2311 11.7047 1.29995 11.9608 1.43046 12.1866C1.56097 12.4124 1.74857 12.5999 1.97442 12.7303L7.17955 15.7047C7.40563 15.8352 7.66209 15.9039 7.92314 15.9039C8.1842 15.9039 8.44065 15.8352 8.66673 15.7047L13.8719 12.7303C14.0977 12.5999 14.2853 12.4124 14.4158 12.1866C14.5463 11.9608 14.6152 11.7047 14.6154 11.4439Z" stroke="black" stroke-width="1.11538" stroke-linecap="round" stroke-linejoin="round"/>
<path d="M1.43164 4.7218L7.92318 8.47693L14.4147 4.7218" stroke="black" stroke-width="1.11538" stroke-linecap="round" stroke-linejoin="round"/>
<path d="M7.92322 15.9649V8.46948" stroke="black" stroke-width="1.11538" stroke-linecap="round" stroke-linejoin="round"/>
</svg>
