<svg width="17" height="17" viewBox="0 0 17 17" fill="none" xmlns="http://www.w3.org/2000/svg">
<path d="M8.79491 15.9359C12.9016 15.9359 16.2308 12.6067 16.2308 8.49998C16.2308 4.39325 12.9016 1.06409 8.79491 1.06409C4.68817 1.06409 1.35901 4.39325 1.35901 8.49998C1.35901 12.6067 4.68817 15.9359 8.79491 15.9359Z" stroke="black" stroke-width="1.11538" stroke-linecap="round" stroke-linejoin="round"/>
<path d="M8.79491 12.9615C11.259 12.9615 13.2565 10.964 13.2565 8.49999C13.2565 6.03595 11.259 4.03845 8.79491 4.03845C6.33087 4.03845 4.33337 6.03595 4.33337 8.49999C4.33337 10.964 6.33087 12.9615 8.79491 12.9615Z" stroke="black" stroke-width="1.11538" stroke-linecap="round" stroke-linejoin="round"/>
<path d="M8.79492 9.98718C9.61627 9.98718 10.2821 9.32134 10.2821 8.5C10.2821 7.67865 9.61627 7.01282 8.79492 7.01282C7.97357 7.01282 7.30774 7.67865 7.30774 8.5C7.30774 9.32134 7.97357 9.98718 8.79492 9.98718Z" stroke="black" stroke-width="1.11538" stroke-linecap="round" stroke-linejoin="round"/>
</svg>
