<svg width="24" height="25" viewBox="0 0 24 25" fill="none" xmlns="http://www.w3.org/2000/svg">
<mask id="path-1-inside-1_234_6868" fill="white">
<path d="M7.6002 10.3024H12.0002C12.221 10.3024 12.4002 10.1236 12.4002 9.90244C12.4002 9.68124 12.221 9.50244 12.0002 9.50244H7.6002C7.3794 9.50244 7.2002 9.68124 7.2002 9.90244C7.2002 10.1236 7.3794 10.3024 7.6002 10.3024Z"/>
</mask>
<path d="M7.6002 10.3024H12.0002C12.221 10.3024 12.4002 10.1236 12.4002 9.90244C12.4002 9.68124 12.221 9.50244 12.0002 9.50244H7.6002C7.3794 9.50244 7.2002 9.68124 7.2002 9.90244C7.2002 10.1236 7.3794 10.3024 7.6002 10.3024Z" fill="#BB00DA"/>
<path d="M7.6002 11.3024H12.0002V9.30244H7.6002V11.3024ZM12.0002 11.3024C12.7726 11.3024 13.4002 10.6766 13.4002 9.90244H11.4002C11.4002 9.57071 11.6694 9.30244 12.0002 9.30244V11.3024ZM13.4002 9.90244C13.4002 9.12831 12.7726 8.50244 12.0002 8.50244V10.5024C11.6694 10.5024 11.4002 10.2342 11.4002 9.90244H13.4002ZM12.0002 8.50244H7.6002V10.5024H12.0002V8.50244ZM7.6002 8.50244C6.82776 8.50244 6.2002 9.12831 6.2002 9.90244H8.2002C8.2002 10.2342 7.93103 10.5024 7.6002 10.5024V8.50244ZM6.2002 9.90244C6.2002 10.6766 6.82776 11.3024 7.6002 11.3024V9.30244C7.93103 9.30244 8.2002 9.57071 8.2002 9.90244H6.2002Z" fill="#BB00DA" mask="url(#path-1-inside-1_234_6868)"/>
<mask id="path-3-inside-2_234_6868" fill="white">
<path d="M14.0002 12.3025H5.6002C5.3794 12.3025 5.2002 12.4813 5.2002 12.7025C5.2002 12.9237 5.3794 13.1025 5.6002 13.1025H14.0002C14.221 13.1025 14.4002 12.9237 14.4002 12.7025C14.4002 12.4813 14.221 12.3025 14.0002 12.3025Z"/>
</mask>
<path d="M14.0002 12.3025H5.6002C5.3794 12.3025 5.2002 12.4813 5.2002 12.7025C5.2002 12.9237 5.3794 13.1025 5.6002 13.1025H14.0002C14.221 13.1025 14.4002 12.9237 14.4002 12.7025C14.4002 12.4813 14.221 12.3025 14.0002 12.3025Z" fill="#BB00DA"/>
<path d="M14.0002 11.3025H5.6002V13.3025H14.0002V11.3025ZM5.6002 11.3025C4.82776 11.3025 4.2002 11.9284 4.2002 12.7025H6.2002C6.2002 13.0342 5.93103 13.3025 5.6002 13.3025V11.3025ZM4.2002 12.7025C4.2002 13.4766 4.82776 14.1025 5.6002 14.1025V12.1025C5.93103 12.1025 6.2002 12.3708 6.2002 12.7025H4.2002ZM5.6002 14.1025H14.0002V12.1025H5.6002V14.1025ZM14.0002 14.1025C14.7726 14.1025 15.4002 13.4766 15.4002 12.7025H13.4002C13.4002 12.3708 13.6694 12.1025 14.0002 12.1025V14.1025ZM15.4002 12.7025C15.4002 11.9284 14.7726 11.3025 14.0002 11.3025V13.3025C13.6694 13.3025 13.4002 13.0342 13.4002 12.7025H15.4002Z" fill="#BB00DA" mask="url(#path-3-inside-2_234_6868)"/>
<mask id="path-5-inside-3_234_6868" fill="white">
<path d="M14.0002 15.1023H5.6002C5.3794 15.1023 5.2002 15.2811 5.2002 15.5023C5.2002 15.7235 5.3794 15.9023 5.6002 15.9023H14.0002C14.221 15.9023 14.4002 15.7235 14.4002 15.5023C14.4002 15.2811 14.221 15.1023 14.0002 15.1023Z"/>
</mask>
<path d="M14.0002 15.1023H5.6002C5.3794 15.1023 5.2002 15.2811 5.2002 15.5023C5.2002 15.7235 5.3794 15.9023 5.6002 15.9023H14.0002C14.221 15.9023 14.4002 15.7235 14.4002 15.5023C14.4002 15.2811 14.221 15.1023 14.0002 15.1023Z" fill="#BB00DA"/>
<path d="M14.0002 14.1023H5.6002V16.1023H14.0002V14.1023ZM5.6002 14.1023C4.82776 14.1023 4.2002 14.7282 4.2002 15.5023H6.2002C6.2002 15.834 5.93103 16.1023 5.6002 16.1023V14.1023ZM4.2002 15.5023C4.2002 16.2764 4.82776 16.9023 5.6002 16.9023V14.9023C5.93103 14.9023 6.2002 15.1706 6.2002 15.5023H4.2002ZM5.6002 16.9023H14.0002V14.9023H5.6002V16.9023ZM14.0002 16.9023C14.7726 16.9023 15.4002 16.2764 15.4002 15.5023H13.4002C13.4002 15.1706 13.6694 14.9023 14.0002 14.9023V16.9023ZM15.4002 15.5023C15.4002 14.7282 14.7726 14.1023 14.0002 14.1023V16.1023C13.6694 16.1023 13.4002 15.834 13.4002 15.5023H15.4002Z" fill="#BB00DA" mask="url(#path-5-inside-3_234_6868)"/>
<mask id="path-7-inside-4_234_6868" fill="white">
<path d="M18.0896 0.69751H10.3104C7.7312 0.69751 5.4576 2.38391 4.6856 4.82631C2.0124 5.39231 0 7.76871 0 10.6079V15.1459C0 18.2387 2.5252 20.8715 5.6 21.0839V23.6759C5.6 23.9463 5.7372 24.1711 5.9576 24.2623C6.0228 24.2891 6.0908 24.3027 6.1588 24.3027C6.3088 24.3027 6.4588 24.2391 6.5788 24.1187L7.1872 23.5103C8.7432 21.9543 10.8476 21.0975 13.1124 21.0975H13.6896C16.3292 21.0975 18.5688 19.3455 19.3256 16.9363C22.0068 16.3163 24 13.8751 24 11.1455V6.60791C24 3.34871 21.3488 0.69751 18.0896 0.69751ZM13.6896 20.2971H13.1124C10.6336 20.2971 8.3284 21.2375 6.6212 22.9443L6.4 23.1659V20.6971V20.2971V19.0355C6.4 18.8143 6.2208 18.6355 6 18.6355C5.7792 18.6355 5.6 18.8143 5.6 19.0355V20.2763C2.96 20.0659 0.8 17.8047 0.8 15.1455V10.6079C0.8 8.15311 2.5404 6.09831 4.8516 5.60911L5.0596 5.57431C5.2072 5.54951 5.3476 5.53151 5.4836 5.51911C5.5952 5.50991 5.7076 5.50391 5.8212 5.50191C5.8504 5.50151 5.8816 5.49791 5.9104 5.49791H13.6896C16.5076 5.49751 18.8 7.79031 18.8 10.6079V15.1459C18.8 15.2907 18.79 15.4331 18.7784 15.5747C18.7724 15.6431 18.766 15.7111 18.7572 15.7799C18.752 15.8235 18.744 15.8659 18.7376 15.9087C18.7072 16.1043 18.6676 16.3007 18.614 16.4971L18.5528 16.7231C17.89 18.7939 15.9616 20.2971 13.6896 20.2971ZM23.2 11.1455C23.2 13.3775 21.658 15.3915 19.5256 16.0595C19.5308 16.0279 19.5324 15.9963 19.5372 15.9647C19.5512 15.8639 19.5652 15.7635 19.574 15.6611C19.59 15.4887 19.6 15.3163 19.6 15.1455V10.6079C19.6 10.2007 19.5584 9.80271 19.4796 9.41831C18.9276 6.72751 16.5412 4.69751 13.6896 4.69751H5.9104C5.9028 4.69751 5.8956 4.69871 5.8876 4.69871C5.7836 4.69911 5.6784 4.70191 5.5708 4.70911C6.3376 2.79151 8.2084 1.49791 10.3104 1.49791H18.0896C20.9076 1.49751 23.2 3.79031 23.2 6.60791V11.1455Z"/>
</mask>
<path d="M18.0896 0.69751H10.3104C7.7312 0.69751 5.4576 2.38391 4.6856 4.82631C2.0124 5.39231 0 7.76871 0 10.6079V15.1459C0 18.2387 2.5252 20.8715 5.6 21.0839V23.6759C5.6 23.9463 5.7372 24.1711 5.9576 24.2623C6.0228 24.2891 6.0908 24.3027 6.1588 24.3027C6.3088 24.3027 6.4588 24.2391 6.5788 24.1187L7.1872 23.5103C8.7432 21.9543 10.8476 21.0975 13.1124 21.0975H13.6896C16.3292 21.0975 18.5688 19.3455 19.3256 16.9363C22.0068 16.3163 24 13.8751 24 11.1455V6.60791C24 3.34871 21.3488 0.69751 18.0896 0.69751ZM13.6896 20.2971H13.1124C10.6336 20.2971 8.3284 21.2375 6.6212 22.9443L6.4 23.1659V20.6971V20.2971V19.0355C6.4 18.8143 6.2208 18.6355 6 18.6355C5.7792 18.6355 5.6 18.8143 5.6 19.0355V20.2763C2.96 20.0659 0.8 17.8047 0.8 15.1455V10.6079C0.8 8.15311 2.5404 6.09831 4.8516 5.60911L5.0596 5.57431C5.2072 5.54951 5.3476 5.53151 5.4836 5.51911C5.5952 5.50991 5.7076 5.50391 5.8212 5.50191C5.8504 5.50151 5.8816 5.49791 5.9104 5.49791H13.6896C16.5076 5.49751 18.8 7.79031 18.8 10.6079V15.1459C18.8 15.2907 18.79 15.4331 18.7784 15.5747C18.7724 15.6431 18.766 15.7111 18.7572 15.7799C18.752 15.8235 18.744 15.8659 18.7376 15.9087C18.7072 16.1043 18.6676 16.3007 18.614 16.4971L18.5528 16.7231C17.89 18.7939 15.9616 20.2971 13.6896 20.2971ZM23.2 11.1455C23.2 13.3775 21.658 15.3915 19.5256 16.0595C19.5308 16.0279 19.5324 15.9963 19.5372 15.9647C19.5512 15.8639 19.5652 15.7635 19.574 15.6611C19.59 15.4887 19.6 15.3163 19.6 15.1455V10.6079C19.6 10.2007 19.5584 9.80271 19.4796 9.41831C18.9276 6.72751 16.5412 4.69751 13.6896 4.69751H5.9104C5.9028 4.69751 5.8956 4.69871 5.8876 4.69871C5.7836 4.69911 5.6784 4.70191 5.5708 4.70911C6.3376 2.79151 8.2084 1.49791 10.3104 1.49791H18.0896C20.9076 1.49751 23.2 3.79031 23.2 6.60791V11.1455Z" fill="#BB00DA"/>
<path d="M4.6856 4.82631L4.89274 5.80462L5.46332 5.68381L5.6391 5.1277L4.6856 4.82631ZM5.6 21.0839H6.6V20.1506L5.66891 20.0863L5.6 21.0839ZM5.9576 24.2623L5.57525 25.1863L5.57742 25.1872L5.9576 24.2623ZM6.5788 24.1187L5.87169 23.4116L5.87052 23.4128L6.5788 24.1187ZM19.3256 16.9363L19.1003 15.962L18.543 16.0909L18.3716 16.6366L19.3256 16.9363ZM6.6212 22.9443L5.91418 22.2371L5.91345 22.2378L6.6212 22.9443ZM6.4 23.1659H5.4V25.5832L7.10775 23.8724L6.4 23.1659ZM5.6 20.2763L5.52056 21.2731L6.6 21.3592V20.2763H5.6ZM4.8516 5.60911L4.68659 4.62282L4.66547 4.62635L4.64452 4.63078L4.8516 5.60911ZM5.0596 5.57431L5.22461 6.5606L5.2253 6.56049L5.0596 5.57431ZM5.4836 5.51911L5.40144 4.52245L5.3928 4.52324L5.4836 5.51911ZM5.8212 5.50191L5.8075 4.502L5.8036 4.50206L5.8212 5.50191ZM13.6896 5.49791V6.49791H13.6897L13.6896 5.49791ZM18.7784 15.5747L19.7746 15.6621L19.7751 15.6564L18.7784 15.5747ZM18.7572 15.7799L17.7652 15.653L17.7642 15.6615L18.7572 15.7799ZM18.7376 15.9087L19.7258 16.0623L19.7266 16.0566L18.7376 15.9087ZM18.614 16.4971L17.6493 16.2338L17.6488 16.2357L18.614 16.4971ZM18.5528 16.7231L19.5052 17.0279L19.5121 17.0064L19.518 16.9845L18.5528 16.7231ZM19.5256 16.0595L18.5389 15.8971L18.2753 17.4991L19.8245 17.0138L19.5256 16.0595ZM19.5372 15.9647L20.5259 16.1149L20.5277 16.1023L19.5372 15.9647ZM19.574 15.6611L18.5783 15.5687L18.5777 15.5755L19.574 15.6611ZM19.4796 9.41831L20.4592 9.21749L20.4592 9.21735L19.4796 9.41831ZM5.8876 4.69871V3.6987L5.88375 3.69872L5.8876 4.69871ZM5.5708 4.70911L4.64228 4.33782L4.05242 5.81295L5.63757 5.70688L5.5708 4.70911ZM18.0896 1.49791V2.49791H18.0897L18.0896 1.49791ZM18.0896 -0.30249H10.3104V1.69751H18.0896V-0.30249ZM10.3104 -0.30249C7.29119 -0.30249 4.6344 1.67028 3.7321 4.52492L5.6391 5.1277C6.2808 3.09754 8.17121 1.69751 10.3104 1.69751V-0.30249ZM4.47846 3.848C1.35378 4.50959 -1 7.28538 -1 10.6079H1C1 8.25204 2.67102 6.27503 4.89274 5.80462L4.47846 3.848ZM-1 10.6079V15.1459H1V10.6079H-1ZM-1 15.1459C-1 18.7784 1.94625 21.8339 5.53109 22.0815L5.66891 20.0863C3.10415 19.9091 1 17.699 1 15.1459H-1ZM4.6 21.0839V23.6759H6.6V21.0839H4.6ZM4.6 23.6759C4.6 24.2823 4.9214 24.9158 5.57525 25.1863L6.33995 23.3383C6.43575 23.3779 6.50715 23.4455 6.54987 23.5156C6.59125 23.5834 6.6 23.6425 6.6 23.6759H4.6ZM5.57742 25.1872C5.75947 25.2621 5.95637 25.3027 6.1588 25.3027V23.3027C6.22523 23.3027 6.28613 23.3162 6.33778 23.3374L5.57742 25.1872ZM6.1588 25.3027C6.59761 25.3027 6.99635 25.1163 7.28708 24.8246L5.87052 23.4128C5.92125 23.3619 6.01999 23.3027 6.1588 23.3027V25.3027ZM7.28591 24.8258L7.89431 24.2174L6.48009 22.8032L5.87169 23.4116L7.28591 24.8258ZM7.89431 24.2174C9.25669 22.855 11.1041 22.0975 13.1124 22.0975V20.0975C10.5911 20.0975 8.22972 21.0536 6.48009 22.8032L7.89431 24.2174ZM13.1124 22.0975H13.6896V20.0975H13.1124V22.0975ZM13.6896 22.0975C16.7838 22.0975 19.3973 20.0448 20.2796 17.236L18.3716 16.6366C17.7403 18.6463 15.8746 20.0975 13.6896 20.0975V22.0975ZM19.5509 17.9106C22.6706 17.1892 25 14.3559 25 11.1455H23C23 13.3944 21.343 15.4434 19.1003 15.962L19.5509 17.9106ZM25 11.1455V6.60791H23V11.1455H25ZM25 6.60791C25 2.79643 21.9011 -0.30249 18.0896 -0.30249V1.69751C20.7965 1.69751 23 3.90099 23 6.60791H25ZM13.6896 19.2971H13.1124V21.2971H13.6896V19.2971ZM13.1124 19.2971C10.3762 19.2971 7.81437 20.3374 5.91418 22.2371L7.32822 23.6515C8.84243 22.1376 10.891 21.2971 13.1124 21.2971V19.2971ZM5.91345 22.2378L5.69225 22.4594L7.10775 23.8724L7.32895 23.6508L5.91345 22.2378ZM7.4 23.1659V20.6971H5.4V23.1659H7.4ZM7.4 20.6971V20.2971H5.4V20.6971H7.4ZM7.4 20.2971V19.0355H5.4V20.2971H7.4ZM7.4 19.0355C7.4 18.2614 6.77243 17.6355 6 17.6355V19.6355C5.66917 19.6355 5.4 19.3672 5.4 19.0355H7.4ZM6 17.6355C5.22757 17.6355 4.6 18.2614 4.6 19.0355H6.6C6.6 19.3672 6.33083 19.6355 6 19.6355V17.6355ZM4.6 19.0355V20.2763H6.6V19.0355H4.6ZM5.67945 19.2795C3.54168 19.1091 1.8 17.2658 1.8 15.1455H-0.2C-0.2 18.3436 2.37832 21.0227 5.52056 21.2731L5.67945 19.2795ZM1.8 15.1455V10.6079H-0.2V15.1455H1.8ZM1.8 10.6079C1.8 8.63652 3.19894 6.98108 5.05868 6.58743L4.64452 4.63078C1.88186 5.21554 -0.2 7.6697 -0.2 10.6079H1.8ZM5.01661 6.5954L5.22461 6.5606L4.89459 4.58802L4.68659 4.62282L5.01661 6.5954ZM5.2253 6.56049C5.34843 6.5398 5.46385 6.52506 5.5744 6.51498L5.3928 4.52324C5.23135 4.53796 5.06597 4.55922 4.8939 4.58813L5.2253 6.56049ZM5.56576 6.51573C5.65804 6.50812 5.74881 6.50334 5.8388 6.50175L5.8036 4.50206C5.66639 4.50448 5.53236 4.5117 5.40144 4.52249L5.56576 6.51573ZM5.8349 6.50182C5.85968 6.50148 5.88102 6.50052 5.89597 6.49973C5.90999 6.499 5.92395 6.49809 5.92895 6.49777C5.93644 6.4973 5.93646 6.49733 5.93463 6.49741C5.93237 6.49751 5.92342 6.49791 5.9104 6.49791V4.49791C5.88298 4.49791 5.85933 4.49875 5.84221 4.49955C5.82552 4.50032 5.81051 4.50127 5.80295 4.50175C5.79815 4.50205 5.79603 4.50219 5.79348 4.50234C5.79133 4.50247 5.79068 4.50251 5.79085 4.5025C5.79105 4.50249 5.79269 4.5024 5.79535 4.5023C5.79802 4.50221 5.80218 4.50208 5.8075 4.502L5.8349 6.50182ZM5.9104 6.49791H13.6896V4.49791H5.9104V6.49791ZM13.6897 6.49791C15.9553 6.49759 17.8 8.34252 17.8 10.6079H19.8C19.8 7.2381 17.0599 4.49743 13.6895 4.49791L13.6897 6.49791ZM17.8 10.6079V15.1459H19.8V10.6079H17.8ZM17.8 15.1459C17.8 15.2476 17.793 15.3561 17.7817 15.4931L19.7751 15.6564C19.787 15.5101 19.8 15.3338 19.8 15.1459H17.8ZM17.7822 15.4873C17.7765 15.5529 17.7715 15.6047 17.7653 15.653L19.7491 15.9068C19.7605 15.8175 19.7683 15.7333 19.7746 15.6621L17.7822 15.4873ZM17.7642 15.6615C17.7642 15.6615 17.764 15.6631 17.7634 15.6672C17.7628 15.6714 17.762 15.677 17.7606 15.6855C17.7587 15.6975 17.7582 15.7002 17.7555 15.7166C17.7535 15.7288 17.7511 15.7442 17.7486 15.7608L19.7266 16.0566C19.7287 16.0426 19.73 16.0352 19.7351 16.0038C19.7392 15.9786 19.7451 15.9409 19.7502 15.8983L17.7642 15.6615ZM17.7495 15.7551C17.7237 15.921 17.6913 16.08 17.6493 16.2338L19.5787 16.7604C19.6439 16.5214 19.6907 16.2876 19.7257 16.0623L17.7495 15.7551ZM17.6488 16.2357L17.5876 16.4617L19.518 16.9845L19.5792 16.7585L17.6488 16.2357ZM17.6004 16.4183C17.0644 18.093 15.508 19.2971 13.6896 19.2971V21.2971C16.4152 21.2971 18.7156 19.4948 19.5052 17.0279L17.6004 16.4183ZM22.2 11.1455C22.2 12.9211 20.9607 14.562 19.2267 15.1052L19.8245 17.0138C22.3553 16.221 24.2 13.834 24.2 11.1455H22.2ZM20.5123 16.2219C20.5203 16.1732 20.5247 16.1301 20.5261 16.116C20.5272 16.1056 20.5274 16.1039 20.5276 16.1024C20.5276 16.1019 20.5271 16.1068 20.5259 16.1149L18.5485 15.8145C18.5449 15.8384 18.5424 15.8592 18.5406 15.8744C18.539 15.8887 18.5375 15.9028 18.537 15.9082C18.5361 15.916 18.5361 15.9167 18.5362 15.9156C18.5364 15.914 18.5372 15.9072 18.5389 15.8971L20.5123 16.2219ZM20.5277 16.1023C20.541 16.0061 20.5589 15.8796 20.5703 15.7467L18.5777 15.5755C18.5715 15.6474 18.5613 15.7217 18.5467 15.8271L20.5277 16.1023ZM20.5697 15.7535C20.5878 15.5589 20.6 15.3547 20.6 15.1455H18.6C18.6 15.278 18.5922 15.4185 18.5783 15.5687L20.5697 15.7535ZM20.6 15.1455V10.6079H18.6V15.1455H20.6ZM20.6 10.6079C20.6 10.1325 20.5514 9.66719 20.4592 9.21749L18.5 9.61913C18.5654 9.93823 18.6 10.269 18.6 10.6079H20.6ZM20.4592 9.21735C19.8138 6.07148 17.0262 3.69751 13.6896 3.69751V5.69751C16.0562 5.69751 18.0414 7.38353 18.5 9.61927L20.4592 9.21735ZM13.6896 3.69751H5.9104V5.69751H13.6896V3.69751ZM5.9104 3.69751C5.88253 3.69751 5.8596 3.69861 5.84468 3.6995C5.83717 3.69996 5.83094 3.70041 5.82687 3.70071C5.82314 3.70099 5.8197 3.70127 5.81942 3.70129C5.81829 3.70138 5.81999 3.70125 5.82223 3.70108C5.82473 3.70089 5.82922 3.70057 5.83495 3.70024C5.84641 3.69956 5.86479 3.69871 5.8876 3.69871V5.69871C5.91441 5.69871 5.93669 5.6977 5.95199 5.69681C5.95963 5.69636 5.96603 5.69591 5.97042 5.69558C5.97456 5.69527 5.97814 5.69499 5.97888 5.69493C5.98047 5.6948 5.9789 5.69493 5.97704 5.69507C5.97484 5.69523 5.97048 5.69555 5.96483 5.69589C5.95365 5.69656 5.93447 5.69751 5.9104 5.69751V3.69751ZM5.88375 3.69872C5.76453 3.69918 5.63764 3.7024 5.50403 3.71134L5.63757 5.70688C5.71916 5.70142 5.80267 5.69904 5.89145 5.6987L5.88375 3.69872ZM6.49932 5.0804C7.11607 3.53804 8.62214 2.49791 10.3104 2.49791V0.49791C7.79466 0.49791 5.55913 2.04498 4.64228 4.33782L6.49932 5.0804ZM10.3104 2.49791H18.0896V0.49791H10.3104V2.49791ZM18.0897 2.49791C20.3553 2.49759 22.2 4.34252 22.2 6.60791H24.2C24.2 3.2381 21.4599 0.497431 18.0895 0.49791L18.0897 2.49791ZM22.2 6.60791V11.1455H24.2V6.60791H22.2Z" fill="#BB00DA" mask="url(#path-7-inside-4_234_6868)"/>
</svg>
