<svg width="23" height="21" viewBox="0 0 23 21" fill="none" xmlns="http://www.w3.org/2000/svg">
<path d="M1.55621 17.5455V16.5478C1.55621 12.6907 4.683 9.56396 8.54007 9.56396" stroke="#BB00DA" stroke-width="1.49654" stroke-linecap="round" stroke-linejoin="round"/>
<path d="M15.3282 9.87667C15.9685 9.1736 17.0748 9.1736 17.7151 9.87667C18.0387 10.2321 18.5039 10.4247 18.9839 10.4023C19.9338 10.3579 20.7161 11.1402 20.6717 12.0901C20.6493 12.5701 20.8419 13.0353 21.1973 13.3589C21.9004 13.9992 21.9004 15.1055 21.1973 15.7458C20.8419 16.0695 20.6493 16.5346 20.6717 17.0147C20.7161 17.9646 19.9338 18.7469 18.9839 18.7025C18.5039 18.68 18.0387 18.8727 17.7151 19.2281C17.0748 19.9311 15.9685 19.9311 15.3282 19.2281C15.0045 18.8727 14.5394 18.68 14.0593 18.7025C13.1094 18.7469 12.3271 17.9646 12.3715 17.0147C12.394 16.5346 12.2013 16.0695 11.8459 15.7458C11.1429 15.1055 11.1429 13.9992 11.8459 13.3589C12.2013 13.0353 12.394 12.5701 12.3715 12.0901C12.3271 11.1402 13.1094 10.3579 14.0593 10.4023C14.5394 10.4247 15.0045 10.2321 15.3282 9.87667Z" stroke="#BB00DA" stroke-width="1.49654"/>
<path d="M14.889 14.5523L15.9775 15.6406L18.1542 13.4639" stroke="#BB00DA" stroke-width="1.49654" stroke-linecap="round" stroke-linejoin="round"/>
<path d="M8.54006 9.56383C10.7441 9.56383 12.5308 7.77706 12.5308 5.57305C12.5308 3.36901 10.7441 1.58228 8.54006 1.58228C6.33602 1.58228 4.54929 3.36901 4.54929 5.57305C4.54929 7.77706 6.33602 9.56383 8.54006 9.56383Z" stroke="#BB00DA" stroke-width="1.49654" stroke-linecap="round" stroke-linejoin="round"/>
</svg>
