<svg width="11" height="13" viewBox="0 0 11 13" fill="none" xmlns="http://www.w3.org/2000/svg">
<path d="M9.9754 5.4877C9.9754 8.97813 5.4877 11.9699 5.4877 11.9699C5.4877 11.9699 1 8.97813 1 5.4877C1 4.29749 1.47281 3.15602 2.31442 2.31442C3.15602 1.47281 4.29749 1 5.4877 1C6.67791 1 7.81937 1.47281 8.66098 2.31442C9.50259 3.15602 9.9754 4.29749 9.9754 5.4877Z" stroke="black" stroke-width="0.997267" stroke-linecap="round" stroke-linejoin="round"/>
<path d="M5.48772 6.98362C6.31388 6.98362 6.98362 6.31388 6.98362 5.48772C6.98362 4.66156 6.31388 3.99182 5.48772 3.99182C4.66156 3.99182 3.99182 4.66156 3.99182 5.48772C3.99182 6.31388 4.66156 6.98362 5.48772 6.98362Z" stroke="black" stroke-width="0.997267" stroke-linecap="round" stroke-linejoin="round"/>
</svg>
