<svg width="16" height="18" viewBox="0 0 16 18" fill="none" xmlns="http://www.w3.org/2000/svg">
<path d="M14.2967 7.52264C14.2967 12.6936 7.64837 17.1258 7.64837 17.1258C7.64837 17.1258 1 12.6936 1 7.52264C1 5.75938 1.70045 4.06834 2.94726 2.82153C4.19407 1.57472 5.88511 0.874268 7.64837 0.874268C9.41163 0.874268 11.1027 1.57472 12.3495 2.82153C13.5963 4.06834 14.2967 5.75938 14.2967 7.52264Z" stroke="#A09E9E" stroke-width="1.47742" stroke-linecap="round" stroke-linejoin="round"/>
<path d="M7.64874 9.73864C8.87267 9.73864 9.86486 8.74645 9.86486 7.52252C9.86486 6.29859 8.87267 5.3064 7.64874 5.3064C6.42481 5.3064 5.43262 6.29859 5.43262 7.52252C5.43262 8.74645 6.42481 9.73864 7.64874 9.73864Z" stroke="#A09E9E" stroke-width="1.47742" stroke-linecap="round" stroke-linejoin="round"/>
</svg>
