<svg width="19" height="25" viewBox="0 0 19 25" fill="none" xmlns="http://www.w3.org/2000/svg">
<path d="M16.945 19.1815L13.6953 17.0018C13.5581 16.9041 13.3974 16.8447 13.2297 16.8297C13.062 16.8147 12.8933 16.8447 12.7411 16.9165L11.4934 17.5493C11.3368 17.6263 11.1613 17.6559 10.9882 17.6345C10.8151 17.6131 10.652 17.5417 10.5189 17.4289C8.18623 15.4987 6.62493 12.7945 6.11962 9.80921C6.08853 9.63759 6.10821 9.46062 6.17624 9.30001C6.24427 9.13941 6.35769 9.00214 6.50259 8.90506L7.6386 8.07882C7.77942 7.98607 7.89293 7.85742 7.96743 7.70615C8.04193 7.55488 8.07472 7.38648 8.0624 7.21831L7.79955 3.31403L7.73952 2.31396C7.72869 2.17004 7.68548 2.03042 7.61313 1.90553C7.4971 1.70284 7.30954 1.5508 7.08722 1.47923C6.47415 1.27517 5.82124 1.22035 5.18272 1.31932C4.54421 1.4183 3.93853 1.66821 3.416 2.04829L3.16082 2.24251L3.02864 2.34384C2.96711 2.38822 2.90802 2.4359 2.85164 2.48667L2.6888 2.6432C0.539506 4.74376 0.943811 10.0247 3.71345 15.2685L4.55608 16.728C7.7085 21.7415 12.0798 24.7321 14.9865 23.9651L15.2035 23.9023C15.2752 23.8791 15.3457 23.852 15.4145 23.8211L15.569 23.7585L15.8648 23.6346C16.4549 23.3719 16.9739 22.9721 17.3785 22.4685C17.7832 21.965 18.0618 21.3721 18.1914 20.7393C18.2406 20.511 18.2027 20.2725 18.0852 20.0707C18.0132 19.9456 17.9139 19.8384 17.7946 19.757L16.945 19.1815Z" stroke="white" stroke-miterlimit="10"/>
</svg>
