<svg width="23" height="22" viewBox="0 0 23 22" fill="none" xmlns="http://www.w3.org/2000/svg">
<path d="M22.6029 8.40024C22.5208 8.14765 22.3025 7.96354 22.0396 7.92539L15.0638 6.91131L11.9444 0.590397C11.8268 0.352226 11.5842 0.201416 11.3187 0.201416C11.0531 0.201416 10.8105 0.352226 10.6929 0.590397L7.57347 6.91131L0.597501 7.92539C0.334583 7.96363 0.116229 8.14775 0.034172 8.40024C-0.0478852 8.65284 0.0204958 8.93008 0.210753 9.1155L5.25857 14.0358L4.06707 20.9829C4.02222 21.2447 4.12977 21.5093 4.34459 21.6653C4.55941 21.8214 4.84428 21.8421 5.07938 21.7184L11.3187 18.4386L17.5579 21.7184C17.66 21.7721 17.7715 21.7985 17.8825 21.7985C17.8832 21.7985 17.8838 21.7985 17.8845 21.7985C17.8845 21.7985 17.8845 21.7985 17.8846 21.7985C18.2699 21.7985 18.5823 21.4861 18.5823 21.1008C18.5823 21.0423 18.5751 20.9854 18.5616 20.9311L17.3788 14.0356L22.4264 9.11541C22.6165 8.93017 22.685 8.65284 22.6029 8.40024ZM16.142 13.2925C15.9775 13.4528 15.9025 13.6838 15.9413 13.9102L16.956 19.8254L11.6435 17.0327C11.4402 16.9258 11.1974 16.9258 10.9942 17.0327L5.6816 19.8254L6.69624 13.9102C6.73513 13.6838 6.66005 13.4529 6.49557 13.2925L2.19743 9.10303L8.13745 8.23957C8.36474 8.20655 8.56123 8.06383 8.66282 7.85785L11.319 2.47585L13.9751 7.85785C14.0767 8.06374 14.2732 8.20655 14.5004 8.23957L20.4402 9.10303L16.142 13.2925Z" fill="#BB00DA"/>
</svg>
